<?xml version="1.0" encoding="UTF-8" standalone="no"?>
<!-- Created with Inkscape (http://www.inkscape.org/) -->

<svg
   xmlns:dc="http://purl.org/dc/elements/1.1/"
   xmlns:cc="http://creativecommons.org/ns#"
   xmlns:rdf="http://www.w3.org/1999/02/22-rdf-syntax-ns#"
   xmlns:svg="http://www.w3.org/2000/svg"
   xmlns="http://www.w3.org/2000/svg"
   xmlns:sodipodi="http://sodipodi.sourceforge.net/DTD/sodipodi-0.dtd"
   xmlns:inkscape="http://www.inkscape.org/namespaces/inkscape"
   width="150"
   height="150"
   viewBox="0 0 150 150.00001"
   id="svg5016"
   version="1.1"
   inkscape:version="0.91 r13725"
   sodipodi:docname="2.svg">
  <defs
     id="defs5018" />
  <sodipodi:namedview
     id="base"
     pagecolor="#ffffff"
     bordercolor="#666666"
     borderopacity="1.0"
     inkscape:pageopacity="0.0"
     inkscape:pageshadow="2"
     inkscape:zoom="5.6"
     inkscape:cx="99.024531"
     inkscape:cy="64.688969"
     inkscape:document-units="px"
     inkscape:current-layer="layer1"
     showgrid="false"
     fit-margin-top="0"
     fit-margin-left="0"
     fit-margin-right="0"
     fit-margin-bottom="0"
     units="px"
     inkscape:window-width="2560"
     inkscape:window-height="1377"
     inkscape:window-x="-8"
     inkscape:window-y="-8"
     inkscape:window-maximized="1" />
  <metadata
     id="metadata5021">
    <rdf:RDF>
      <cc:Work
         rdf:about="">
        <dc:format>image/svg+xml</dc:format>
        <dc:type
           rdf:resource="http://purl.org/dc/dcmitype/StillImage" />
        <dc:title></dc:title>
      </cc:Work>
    </rdf:RDF>
  </metadata>
  <g
     inkscape:label="Vrstva 1"
     inkscape:groupmode="layer"
     id="layer1"
     transform="translate(669.28572,766.43598)">
    <g
       id="g4239"
       transform="matrix(0.29296958,0,0,0.29296953,-669.28458,-766.43636)">
      <path
         id="path4211"
         d="m 501.95703,290.86719 c -77.55078,77.54687 -203.28516,77.54687 -280.83203,0 -77.55078,-77.55078 -77.55078,-203.285159 0,-280.832034 0.8125,-0.8125 1.63281,-1.601562 2.45703,-2.398437 C 171.32812,14.691406 120.875,38.28125 80.710938,78.441406 c -97.429688,97.433594 -97.429688,255.402344 0,352.835934 97.433592,97.4336 255.402342,97.4336 352.835932,0 40.16407,-40.16406 63.75391,-90.61328 70.80469,-142.86718 -0.79297,0.82031 -1.58594,1.64453 -2.39453,2.45703 z m 0,0"
         inkscape:connector-curvature="0"
         style="fill:#ffd073" />
      <path
         id="path4213"
         d="m 364.66406,480.06641 c -92.73047,44.27734 -207.14844,28.01562 -283.953122,-48.78907 -97.433594,-97.43359 -97.433594,-255.39843 0,-352.832028 C 118.13672,41.023438 164.5,17.976562 212.92187,9.320312 c -24.89843,11.875 -48.23828,28.136719 -68.85937,48.757813 -97.433594,97.433595 -97.433594,255.398435 0,352.832035 60,60 142.96484,83.05468 220.60156,69.15625 z m 0,0"
         inkscape:connector-curvature="0"
         style="fill:#f28f44" />
      <path
         id="path4215"
         d="M 352.85547,121.92578 380.5,116.52344 c 12.11328,-2.36328 12.11328,-19.691409 0,-22.058596 L 352.85547,89.0625 C 337.125,85.988281 324.82031,73.6875 321.74609,57.953125 l -5.40234,-27.644531 c -2.36328,-12.109375 -19.69141,-12.109375 -22.05859,0 l -5.40235,27.644531 C 285.80859,73.6875 273.50781,85.988281 257.77344,89.0625 l -27.64453,5.402344 c -12.10938,2.367187 -12.10938,19.695316 0,22.058596 l 27.64453,5.40234 c 15.73437,3.07422 28.03515,15.375 31.10937,31.10938 l 5.40235,27.64453 c 2.36718,12.10937 19.69531,12.10937 22.05859,0 l 5.40234,-27.64453 C 324.82422,137.30078 337.125,125 352.85547,121.92578 Z m 0,0"
         inkscape:connector-curvature="0"
         style="fill:#ffee8c" />
      <path
         id="path4217"
         d="m 419.82812,251.84766 17.85547,-3.48829 c 7.82422,-1.53125 7.82422,-12.72265 0,-14.2539 l -17.85547,-3.48828 c -10.16406,-1.98828 -18.10937,-9.9336 -20.09765,-20.09766 l -3.48828,-17.85547 c -1.52735,-7.82422 -12.72266,-7.82422 -14.25,0 L 378.5,210.51953 c -1.98438,10.16406 -9.92969,18.10938 -20.09375,20.09766 l -17.85938,3.48828 c -7.82421,1.52734 -7.82421,12.72265 0,14.2539 l 17.85938,3.48829 c 10.16016,1.98437 18.10937,9.93359 20.09375,20.09765 l 3.49219,17.85547 c 1.52734,7.82422 12.71875,7.82422 14.25,0 l 3.48828,-17.85547 c 1.98828,-10.16406 9.93359,-18.11328 20.09765,-20.09765 z m 0,0"
         inkscape:connector-curvature="0"
         style="fill:#ffee8c" />
      <path
         id="path4219"
         d="m 507.68359,281.53516 c -2.96875,-1.44141 -6.52734,-0.8086 -8.82031,1.5664 L 498.47656,283.5 c -0.63672,0.66016 -1.27344,1.31641 -1.92187,1.96484 -74.44532,74.44922 -195.58203,74.44922 -270.03125,0 -41.55469,-41.55468 -61.46094,-98.90234 -54.6211,-157.34375 0.48828,-4.1914 -2.50781,-7.98437 -6.69922,-8.47656 -4.1914,-0.49219 -7.98046,2.51172 -8.47265,6.69922 -7.38672,63.10937 14.11719,125.04297 58.99219,169.92187 75.70312,75.70313 196.10546,80.12891 277.03515,13.28125 -10.11328,44.04297 -32.1914,83.91407 -64.60937,116.33204 -26.54297,26.53906 -57.88672,46.05859 -93.16407,58.02343 -3.99218,1.35157 -6.13281,5.6875 -4.77734,9.6836 1.07813,3.18359 4.04688,5.1875 7.23047,5.1875 0.8125,0 1.64062,-0.12891 2.45312,-0.40625 37.51563,-12.72266 70.84375,-33.47656 99.0586,-61.6875 40.16015,-40.16016 65.39062,-91.07813 72.97265,-147.25 0.44141,-3.26953 -1.26953,-6.45313 -4.23828,-7.89453 z m 0,0"
         inkscape:connector-curvature="0" />
      <path
         id="path4221"
         d="M 302.80859,492.38672 C 223.87109,507.49219 142.86328,482.62891 86.113281,425.87891 40.433594,380.19922 15.273438,319.46094 15.273438,254.85938 c 0,-64.60157 25.160156,-125.33594 70.839843,-171.01563 32.417969,-32.417969 72.292969,-54.5 116.343749,-64.613281 -18.46094,22.371093 -32.0664,48.449219 -39.74219,76.378906 -1.12109,4.070313 1.27344,8.273435 5.33985,9.390625 4.0664,1.11719 8.26953,-1.27344 9.38672,-5.339844 8.71484,-31.707031 25.6875,-60.828125 49.08203,-84.226562 0.63672,-0.632813 1.28125,-1.253906 1.92187,-1.875 l 0.44532,-0.429688 c 2.375,-2.296875 3.0039,-5.855468 1.5625,-8.824218 -1.4375,-2.96875 -4.625,-4.675782 -7.89063,-4.2343755 C 166.39063,7.648438 115.47266,32.882812 75.3125,73.042969 26.746094,121.60938 0,186.17969 0,254.85938 0,323.54297 26.746094,388.11328 75.3125,436.67969 124.01953,485.38672 189.53125,512 257.125,512 c 16.13281,0 32.38672,-1.51563 48.55469,-4.60938 4.14453,-0.79296 6.85937,-4.79687 6.0664,-8.9375 -0.79297,-4.14453 -4.79297,-6.85937 -8.9375,-6.0664 z m 0,0"
         inkscape:connector-curvature="0" />
      <path
         id="path4223"
         d="m 213.41016,105.49609 c 0,9.15235 6.27343,16.76954 15.25781,18.52344 l 27.64453,5.40234 c 12.74219,2.49219 22.58594,12.33594 25.07422,25.07813 l 5.40234,27.64453 c 1.75781,8.98047 9.375,15.25391 18.52735,15.25391 9.15234,0 16.76953,-6.27344 18.52734,-15.25391 L 329.24609,154.5 c 2.48828,-12.74609 12.33203,-22.58594 25.07422,-25.07813 l 27.64453,-5.40234 c 8.98438,-1.7539 15.25782,-9.375 15.25782,-18.52734 0,-9.152346 -6.27344,-16.769534 -15.25782,-18.52344 L 354.32031,81.566406 C 341.57812,79.074219 331.73437,69.234375 329.24609,56.488281 L 323.84375,28.84375 c -1.75781,-8.980469 -9.375,-15.253906 -18.52734,-15.253906 -9.15235,0 -16.76954,6.273437 -18.52735,15.253906 l -5.40234,27.644531 c -2.48828,12.746094 -12.33203,22.585938 -25.07422,25.078125 l -27.64453,5.402344 c -8.98438,1.753906 -15.25781,9.375 -15.25781,18.52734 z m 18.1875,-3.53515 27.64453,-5.402346 c 18.87109,-3.6875 33.44922,-18.265625 37.13672,-37.136719 l 5.40234,-27.644531 c 0.49219,-2.535156 2.42578,-2.914063 3.53516,-2.914063 1.10547,0 3.03906,0.378907 3.53515,2.914063 L 314.25,59.421875 c 3.6875,18.871094 18.26953,33.449219 37.14062,37.136719 l 27.64454,5.402346 c 2.53125,0.49609 2.91015,2.42578 2.91015,3.53515 0,1.10938 -0.3789,3.03907 -2.91015,3.53516 l -27.64454,5.40234 c -18.875,3.6875 -33.45312,18.26563 -37.14062,37.13672 l -5.39844,27.64453 c -0.49609,2.53125 -2.42969,2.91016 -3.53515,2.91016 -1.10938,0 -3.04297,-0.37891 -3.53516,-2.91016 l -5.40234,-27.64453 c -3.6875,-18.87109 -18.26563,-33.44922 -37.13672,-37.13672 l -27.64453,-5.40234 c -2.53516,-0.49609 -2.91407,-2.42578 -2.91407,-3.53516 0,-1.10937 0.37891,-3.04296 2.91407,-3.53515 z m 0,0"
         inkscape:connector-curvature="0" />
      <path
         id="path4225"
         d="m 374.49609,191.19922 -3.48828,17.85547 c -1.39844,7.14843 -6.91797,12.66797 -14.0664,14.0664 l -17.85547,3.48828 c -7.08985,1.38672 -12.04297,7.39844 -12.04297,14.6211 0,7.22656 4.95312,13.23828 12.04297,14.625 l 17.85547,3.48828 c 7.14843,1.39844 12.66796,6.91797 14.0664,14.0625 l 3.48828,17.85937 c 1.38672,7.08985 7.39844,12.03907 14.6211,12.03907 7.22265,0 13.23437,-4.94922 14.62109,-12.03907 l 3.48828,-17.85937 c 1.39844,-7.14844 6.91797,-12.66797 14.06641,-14.0625 l 17.85547,-3.49219 c 7.08984,-1.38281 12.04297,-7.39844 12.04297,-14.62109 0,-7.22266 -4.95313,-13.23828 -12.04297,-14.6211 l -17.85547,-3.48828 c -7.14844,-1.39843 -12.66797,-6.91797 -14.06641,-14.0664 l -3.48828,-17.85547 c -1.38672,-7.08985 -7.39844,-12.04297 -14.62109,-12.04297 -7.22266,0 -13.23438,4.95312 -14.6211,12.04297 z m 17.74219,20.78515 c 2.59375,13.27735 12.84766,23.53125 26.125,26.12891 l 15.95313,3.12109 -15.95313,3.11719 c -13.27734,2.59375 -23.53125,12.84766 -26.125,26.125 l -3.12109,15.95703 -3.1211,-15.95703 c -2.59375,-13.27734 -12.84765,-23.53125 -26.125,-26.125 l -15.95312,-3.12109 15.95312,-3.11719 c 13.27735,-2.59766 23.53125,-12.85156 26.125,-26.12891 l 3.1211,-15.95312 z m 0,0"
         inkscape:connector-curvature="0" />
      <path
         id="path4227"
         d="m 85.484375,257.42187 c 0.800781,0 1.621094,-0.1289 2.425781,-0.39843 4,-1.33594 6.15625,-5.66407 4.816406,-9.66407 l -2.890624,-8.64062 c -1.339844,-4 -5.667969,-6.16016 -9.667969,-4.82031 -4,1.33984 -6.15625,5.66797 -4.816407,9.66797 l 2.890626,8.64062 c 1.070312,3.19531 4.046874,5.21484 7.242187,5.21484 z m 0,0"
         inkscape:connector-curvature="0" />
      <path
         id="path4229"
         d="m 127.57813,243.33203 c 0.80468,0 1.62109,-0.12891 2.42578,-0.39844 4,-1.33593 6.15625,-5.66406 4.8164,-9.66406 l -2.89062,-8.64062 c -1.33985,-4 -5.66797,-6.15625 -9.66797,-4.82032 -4,1.33985 -6.15625,5.66797 -4.81641,9.66797 l 2.89063,8.64063 c 1.07031,3.19531 4.04687,5.21484 7.24219,5.21484 z m 0,0"
         inkscape:connector-curvature="0" />
      <path
         id="path4231"
         d="m 83.25,292.51172 c 8.34375,4.16015 17.34375,6.25781 26.40234,6.25781 6.33594,0 12.69922,-1.02734 18.88282,-3.09765 15.02343,-5.02735 27.1875,-15.60547 34.25781,-29.78516 1.8789,-3.77344 0.34375,-8.35938 -3.42969,-10.24219 -3.77344,-1.88281 -8.36328,-0.34765 -10.24219,3.42969 -10.83203,21.73047 -37.32421,30.59766 -59.05859,19.76562 -3.773438,-1.88281 -8.359375,-0.34375 -10.242188,3.42969 -1.882812,3.77344 -0.347656,8.35938 3.429688,10.24219 z m 0,0"
         inkscape:connector-curvature="0" />
    </g>
  </g>
</svg>
