<?xml version="1.0" encoding="UTF-8" standalone="no"?>
<!-- Created with Inkscape (http://www.inkscape.org/) -->

<svg
   xmlns:dc="http://purl.org/dc/elements/1.1/"
   xmlns:cc="http://creativecommons.org/ns#"
   xmlns:rdf="http://www.w3.org/1999/02/22-rdf-syntax-ns#"
   xmlns:svg="http://www.w3.org/2000/svg"
   xmlns="http://www.w3.org/2000/svg"
   xmlns:sodipodi="http://sodipodi.sourceforge.net/DTD/sodipodi-0.dtd"
   xmlns:inkscape="http://www.inkscape.org/namespaces/inkscape"
   width="150"
   height="150"
   viewBox="0 0 150 150.00001"
   id="svg5016"
   version="1.1"
   inkscape:version="0.91 r13725"
   sodipodi:docname="3.svg">
  <defs
     id="defs5018" />
  <sodipodi:namedview
     id="base"
     pagecolor="#ffffff"
     bordercolor="#666666"
     borderopacity="1.0"
     inkscape:pageopacity="0.0"
     inkscape:pageshadow="2"
     inkscape:zoom="5.6"
     inkscape:cx="99.024531"
     inkscape:cy="64.688969"
     inkscape:document-units="px"
     inkscape:current-layer="layer1"
     showgrid="false"
     fit-margin-top="0"
     fit-margin-left="0"
     fit-margin-right="0"
     fit-margin-bottom="0"
     units="px"
     inkscape:window-width="2560"
     inkscape:window-height="1377"
     inkscape:window-x="-8"
     inkscape:window-y="-8"
     inkscape:window-maximized="1" />
  <metadata
     id="metadata5021">
    <rdf:RDF>
      <cc:Work
         rdf:about="">
        <dc:format>image/svg+xml</dc:format>
        <dc:type
           rdf:resource="http://purl.org/dc/dcmitype/StillImage" />
        <dc:title></dc:title>
      </cc:Work>
    </rdf:RDF>
  </metadata>
  <g
     inkscape:label="Vrstva 1"
     inkscape:groupmode="layer"
     id="layer1"
     transform="translate(669.28572,766.43598)">
    <g
       id="g4516"
       transform="matrix(0.29296845,0,0,0.29296842,-669.28573,-762.5856)">
      <path
         id="path4488"
         d="m 68.519531,357.25 c -29.058593,-11.40625 -60.941406,9.28516 -60.941406,39.64062 0,41.51172 55.414063,58.57422 80.347656,24.81641 C 78.664062,405.95312 70.523438,386.92187 68.519531,357.25 Z m 0,0"
         inkscape:connector-curvature="0"
         style="fill:#d1d0cf" />
      <path
         id="path4490"
         d="m 27.582031,396.89062 c 0,-20.29687 14.640625,-37.28515 34.273438,-41.66796 -27.621094,-6.1836 -54.277344,14.02343 -54.277344,41.66796 0,27.45313 26.4375,47.88282 54.277344,41.67188 C 42.21875,434.17578 27.582031,417.19141 27.582031,396.89062 Z m 0,0"
         inkscape:connector-curvature="0"
         style="fill:#afafaf" />
      <path
         id="path4492"
         d="m 408.30859,306.14062 c 42.3086,6.75 69.76953,-18.4375 89.27344,-37.9414 20.92188,-20.92188 -9.15234,-18.30469 -36.60937,-60.80078 -19.57422,-30.29297 -48.72657,-31.81641 -63.84766,-30.19141 -4.81641,0.51563 -8.79297,-3.73047 -8.00781,-8.50781 4.625,-28.17188 13.77343,-107.027345 -19.92188,-148.359376 -40.65234,-49.863282 -93.51562,51.441406 -29.73437,174.882816 3.04687,5.90234 3.30078,12.85546 0.71484,18.97656 -4.00391,9.46484 -12.53516,22.99219 -30.39062,32.95703 -30.39844,16.96484 -89.9961,-55.625 -168.33204,-16.22656 -84.617182,42.55859 -81.136714,115.80468 -69.332026,160.0625 7.914062,29.6914 31.109376,58.72656 45.515626,74.625 7.17578,7.91406 17.35156,12.42968 28.03515,12.42968 l 166.70704,0 c 19.20312,0 7.34375,-45.3789 -27.27344,-45.3789 42.04687,0 52.10937,-25.25781 52.10937,-25.25781 -0.39453,-0.67188 8.70703,15.39843 13.06641,20.4414 10.64453,12.32422 9.36328,22.91797 9.36328,36.46875 0,7.58203 6.14453,13.72656 13.72656,13.72656 l 51.90235,0 c 6.5664,0 11.60937,-5.91406 10.46484,-12.3789 -8.875,-50.29688 -70.65234,-51.00781 -42.10156,-85.02735 22.05469,-26.27734 15.14453,-54.23437 9.48828,-67.92578 -1.43359,-3.46484 1.48047,-7.16406 5.18359,-6.57422 z m 0,0"
         inkscape:connector-curvature="0"
         style="fill:#e4e3e1" />
      <path
         id="path4494"
         d="m 307.78906,248.10937 c 8.47656,2.24219 15.83594,2.48438 22,-0.95312 17.85547,-9.96484 26.38672,-23.49219 30.38672,-32.95703 2.58985,-6.1211 2.33594,-13.07422 -0.71484,-18.97656 C 312.37891,104.10156 328.86328,25.058594 357.07031,9.960938 319.33984,-9.53125 281.90234,83.824219 339.46094,195.22266 c 3.05078,5.90234 3.30078,12.85546 0.71484,18.97656 -7.73437,18.29687 -23.80859,30.32812 -32.38672,33.91015 z m 0,0"
         inkscape:connector-curvature="0"
         style="fill:#d1d0cf" />
      <path
         id="path4496"
         d="m 137.63672,465.61719 c -14.40625,-15.89844 -37.59766,-44.9336 -45.515626,-74.625 -11.800782,-44.25782 -15.285156,-117.50391 69.335936,-160.0625 13.48828,-6.78516 26.42188,-10.2461 38.74609,-11.41797 -18.10156,-1.65235 -37.75,0.85547 -58.74609,11.41797 -84.621092,42.55859 -81.136718,115.80468 -69.335936,160.0625 7.917968,29.6914 31.109376,58.72656 45.515626,74.625 7.17578,7.91406 17.35156,12.42968 28.03515,12.42968 l 20.00391,0 c -10.68359,0 -20.86328,-4.51562 -28.03906,-12.42968 z m 0,0"
         inkscape:connector-curvature="0"
         style="fill:#d1d0cf" />
      <path
         id="path4498"
         d="m 337.21484,71.523438 c -2.46875,35.191402 8.29297,69.761722 21.63672,97.359372 7.875,16.28516 22.58985,17.11719 32.46485,6.33594 -1.6836,-1.60547 -2.61719,-3.98438 -2.19922,-6.52344 4.625,-28.17187 13.77344,-107.023435 -19.92188,-148.355466 0,0 -28.43359,0.574218 -31.98047,51.183594 z m 0,0"
         inkscape:connector-curvature="0"
         style="fill:#f45858" />
      <path
         id="path4500"
         d="m 385.53906,178.23047 c -2.80078,-2.65625 -5.0039,-5.8711 -6.68359,-9.34766 -29.63672,-61.29297 -27.60156,-121.44531 -4.64844,-141.640622 -1.55859,-2.394532 -3.21875,-4.703126 -5.01172,-6.902344 0,0 -28.43359,0.574218 -31.98047,51.183594 -2.46875,35.191402 8.29688,69.761722 21.64063,97.359372 7.05469,14.58985 19.36328,16.15235 27.97265,10.27735 -0.83203,-0.53907 -1.28906,-0.92969 -1.28906,-0.92969 z m 0,0"
         inkscape:connector-curvature="0"
         style="fill:#dd4040" />
      <path
         id="path4502"
         d="m 440.26172,232.05469 c 0,5.8789 -4.76953,10.64453 -10.64844,10.64453 -5.8789,0 -10.64453,-4.76563 -10.64453,-10.64453 0,-5.87891 4.76562,-10.64844 10.64453,-10.64844 5.87891,0 10.64844,4.76953 10.64844,10.64844 z m 0,0"
         inkscape:connector-curvature="0"
         style="fill:#525468" />
      <path
         id="path4504"
         d="m 83.9375,434.36719 c 9.628906,15.12109 20.4375,28.03906 28.0625,36.45312 8.57813,9.46875 20.82422,14.89453 33.59375,14.89453 l 50.46094,0 c 4.14453,0 7.5,-3.35547 7.5,-7.5 0,-4.14062 -3.35547,-7.5 -7.5,-7.5 l -50.46094,0 c -8.54297,0 -16.73828,-3.63281 -22.48047,-9.96484 -37.804686,-41.71484 -47.167968,-71.80469 -49.253905,-103.81641 -0.03906,-0.58593 -0.160156,-1.14843 -0.328125,-1.69531 -2.703125,-41.35156 11.285156,-87.29687 71.21484,-117.44141 76.0586,-38.25 132.35938,36.32032 168.61719,16.07813 19.66016,-10.97266 29.14453,-25.95313 33.64063,-36.58594 3.47265,-8.20703 3.12109,-17.4414 -0.96094,-25.33984 -44.23047,-85.60938 -30.08985,-159.195314 -6.9375,-174.375001 5.1289,-3.367188 10.43359,-3.355469 15.83594,-0.02734 -34.14063,20.09375 -33.23438,92.074211 -2.91797,154.765621 2.17969,4.51172 4.96094,8.39062 8.27344,11.52734 3.00781,2.85157 7.7539,2.72266 10.60546,-0.28125 2.85157,-3.00781 2.72266,-7.75781 -0.28515,-10.60547 -1.98828,-1.88671 -3.70313,-4.29687 -5.08985,-7.16796 C 334,100.58594 340.35156,38.132812 366,28.8125 c 9.96094,13.953125 16.32813,33.328125 18.92969,57.71875 0.4375,4.117188 4.14453,7.09375 8.2539,6.660156 4.11719,-0.4375 7.10157,-4.132812 6.66407,-8.25 C 396.70313,55.464844 388.32031,32.195312 374.92969,15.769531 361.74609,-0.402344 345.28125,-4.414062 330.87891,5.027344 c -31.76953,20.835937 -44.92578,103.296876 1.83984,193.804686 2.02734,3.92578 2.19922,8.52344 0.46875,12.61328 -3.57812,8.46875 -11.19531,20.4336 -27.13672,29.32813 -8.64062,4.82422 -23.98047,-1.78516 -41.74219,-9.44141 -31.83984,-13.72266 -75.4414,-32.51562 -126.30078,-6.9375 -64.156248,32.26953 -79.968748,81.57813 -79.636716,123.04688 -2.660156,-0.4336 -5.359375,-0.66407 -8.089844,-0.66407 C 22.558594,346.77734 0,369.33594 0,397.0625 c 0,27.72266 22.558594,50.28125 50.28125,50.28125 12.527344,0 24.503906,-4.73047 33.65625,-12.97656 z M 15,397.0625 c 0,-19.45703 15.828125,-35.28125 35.28125,-35.28125 3.042969,0 6.035156,0.38672 8.945312,1.14844 2.128907,21.08984 7.242188,39.96093 16.894532,58.13672 -6.636719,7.1289 -16.003906,11.27343 -25.839844,11.27343 C 30.828125,432.33984 15,416.51562 15,397.0625 Z m 0,0"
         inkscape:connector-curvature="0" />
      <path
         id="path4506"
         d="m 447.67969,232.22266 c 0,-10.00782 -8.14063,-18.14844 -18.14453,-18.14844 -10.00782,0 -18.14844,8.14062 -18.14844,18.14844 0,10.00781 8.14062,18.14843 18.14844,18.14843 10.0039,0 18.14453,-8.14062 18.14453,-18.14843 z m -21.29297,0 c 0,-1.73438 1.41406,-3.14454 3.14844,-3.14454 1.73437,0 3.14453,1.41016 3.14453,3.14454 0,1.73437 -1.41016,3.14453 -3.14453,3.14453 -1.73438,0 -3.14844,-1.41016 -3.14844,-3.14453 z m 0,0"
         inkscape:connector-curvature="0" />
      <path
         id="path4508"
         d="m 467.19531,203.5 c -21.5625,-33.37109 -53.46094,-35.41016 -70.72265,-33.60938 1.84765,-11.29687 4.14453,-28.90234 4.66797,-48.95703 0.10937,-4.14062 -3.16016,-7.58593 -7.30079,-7.6914 -0.0664,-0.004 -0.13281,-0.004 -0.19921,-0.004 -4.05079,0 -7.38672,3.23047 -7.4961,7.30469 -0.5039,19.3164 -2.73047,36.28125 -4.50781,47.10547 -1.58985,9.67187 6.45312,18.22656 16.20703,17.18359 13.77344,-1.47656 39.45703,0.043 56.75,26.80859 12.11328,18.75 24.94141,29.35938 33.42969,36.38282 3.64062,3.01172 8.6289,7.14062 8.97656,8.64453 -0.17969,3.20312 -20.33594,22.37109 -34.40625,31.08203 -8.79297,-0.9375 -16.63672,-6.66016 -16.72266,-6.72266 -3.30859,-2.46875 -7.99609,-1.79297 -10.48047,1.51172 -2.48437,3.3125 -1.8164,8.01563 1.4961,10.5 0.21484,0.16406 2.47265,1.83203 6.0625,3.75 -10,3.04297 -21.07422,4.10547 -33.53516,2.11328 -9.47265,-1.5 -16.96875,7.97266 -13.30078,16.85157 5.20703,12.59765 11.05469,37.17968 -8.29687,60.23437 -20.58985,24.53125 -2.32422,38.62109 10.86328,49.375 12.16797,9.92578 25.95703,21.17188 29.59765,41.77734 0.32422,1.85938 -1.16406,3.57422 -3.08203,3.57422 l -51.90234,0 c -3.43359,0 -6.22656,-2.79297 -6.22656,-6.22656 l 0,-12.15625 c 0,-10.83594 -4.00782,-21.25 -11.29297,-29.33203 -13.96875,-15.50391 -19.4336,-36.71484 -19.4336,-57.87891 0,-4.14453 -3.35546,-7.5 -7.5,-7.5 -4.14062,0 -7.5,3.35547 -7.5,7.5 0,17.14063 3.08204,31.01953 7.47657,42.10157 -3.54297,5.42578 -14.91016,18.11328 -43.78907,18.11328 -39.92578,0 -43.5039,0.80859 -52.59765,-2.75391 -10.27735,-4.03125 -11.46485,-10.39062 -11.46485,-14.82422 0,-4.83203 6.79297,-10.71875 13.98438,-16.94531 17.33984,-15.01953 43.53906,-37.71484 7.13281,-81.17969 -2.66015,-3.17578 -7.39062,-3.59375 -10.5664,-0.93359 -3.17579,2.66015 -3.59375,7.39062 -0.9336,10.5664 26.9336,32.15625 11.92578,45.15235 -5.45312,60.20704 -9.42188,8.16015 -19.16407,16.59765 -19.16407,28.28515 0,25.41016 26.07813,32.42188 39.95313,32.57813 l 39.10937,0 c 19,0 28.9375,17.40234 28.9375,26.73047 0,1.83593 -0.38281,2.99609 -0.71484,3.42968 -0.043,0.0547 -0.16797,0.21875 -0.94922,0.21875 l -81.24609,0 c -4.14063,0 -7.5,3.35938 -7.5,7.5 0,4.14453 3.35937,7.5 7.5,7.5 l 81.24609,0 c 9.44531,0 16.66797,-6.95312 16.66797,-18.64453 0,-9.9375 -5.32031,-22.44922 -15.34375,-31.17187 10.61719,-3.71094 17.82031,-9.17188 22.54297,-14.09766 2.78906,4.44141 5.69531,8.17188 8.46094,11.24219 4.79687,5.32031 7.4375,12.17187 7.4375,19.28906 l 0,12.15625 c 0,11.70313 9.51953,21.22656 21.22656,21.22656 l 51.90234,0 c 11.25781,0 19.79688,-10.15234 17.85156,-21.17968 -4.60546,-26.10157 -22.10546,-40.375 -34.88671,-50.79688 -15.1211,-12.33594 -19.03516,-15.97656 -8.85547,-28.10547 22.36718,-26.65234 18.17968,-54.67187 12.32422,-71.29687 45.45312,5.07422 75.03906,-24.52735 91.17578,-40.66407 4.45312,-4.45312 9.51953,-10.48437 9.17968,-17.6914 -0.74218,-15.75 -23.35156,-19.30078 -44.78906,-52.48047 z m 0,0"
         inkscape:connector-curvature="0" />
    </g>
  </g>
</svg>
