<?xml version="1.0" encoding="UTF-8" standalone="no"?>
<!-- Created with Inkscape (http://www.inkscape.org/) -->

<svg
   xmlns:dc="http://purl.org/dc/elements/1.1/"
   xmlns:cc="http://creativecommons.org/ns#"
   xmlns:rdf="http://www.w3.org/1999/02/22-rdf-syntax-ns#"
   xmlns:svg="http://www.w3.org/2000/svg"
   xmlns="http://www.w3.org/2000/svg"
   xmlns:sodipodi="http://sodipodi.sourceforge.net/DTD/sodipodi-0.dtd"
   xmlns:inkscape="http://www.inkscape.org/namespaces/inkscape"
   width="150"
   height="150"
   viewBox="0 0 150 150.00001"
   id="svg5016"
   version="1.1"
   inkscape:version="0.91 r13725"
   sodipodi:docname="4.svg">
  <defs
     id="defs5018" />
  <sodipodi:namedview
     id="base"
     pagecolor="#ffffff"
     bordercolor="#666666"
     borderopacity="1.0"
     inkscape:pageopacity="0.0"
     inkscape:pageshadow="2"
     inkscape:zoom="5.6"
     inkscape:cx="68.578102"
     inkscape:cy="64.688969"
     inkscape:document-units="px"
     inkscape:current-layer="layer1"
     showgrid="false"
     fit-margin-top="0"
     fit-margin-left="0"
     fit-margin-right="0"
     fit-margin-bottom="0"
     units="px"
     inkscape:window-width="2560"
     inkscape:window-height="1377"
     inkscape:window-x="-8"
     inkscape:window-y="-8"
     inkscape:window-maximized="1" />
  <metadata
     id="metadata5021">
    <rdf:RDF>
      <cc:Work
         rdf:about="">
        <dc:format>image/svg+xml</dc:format>
        <dc:type
           rdf:resource="http://purl.org/dc/dcmitype/StillImage" />
        <dc:title />
      </cc:Work>
    </rdf:RDF>
  </metadata>
  <g
     inkscape:label="Vrstva 1"
     inkscape:groupmode="layer"
     id="layer1"
     transform="translate(669.28572,766.43598)">
    <g
       id="g4460"
       transform="matrix(0.50069508,0,0,0.50069508,-859.64306,-583.51348)">
      <g
         id="g4406"
         transform="matrix(3.9331975,3.4095111,-3.4095111,3.9331975,538.35833,-384.75681)">
        <path
           id="path4408"
           d="M 45.028,13.98 C 45.602,13.361 45.35,12.297 44.578,11.953 42.78,11.153 43.517,8.494 42.014,8.635 40.29,8.796 39.024,7.531 39.186,5.807 39.347,4.083 38.082,2.817 36.358,2.979 34.634,3.14 36.314,0.46 33.53,0.151 c 0,0 -1.945,-0.751 -2.13,1.111 l -0.029,7.258 -11.207,0 C 9.126,8.52 0.178,17.468 0.178,28.506 l 0,17.014 16.876,0 c 11.114,0 20.124,-9.01 20.124,-20.124 l 0,-11.159 7.244,0.067 c 0.256,-0.04 0.453,-0.16 0.606,-0.324 z"
           style="fill:#698b9e;stroke:#000000;stroke-opacity:1"
           inkscape:connector-curvature="0" />
        <path
           id="path4410"
           d="m 21.951,39.899 -2,0 c 0,-7.72 -6.28,-14 -14,-14 l 0,-2 c 8.822,0 16,7.177 16,16 z"
           style="fill:#5d7989;stroke:#000000;stroke-width:0.18782911;stroke-linecap:round;stroke-linejoin:round;stroke-miterlimit:4;stroke-dasharray:none;stroke-opacity:1"
           inkscape:connector-curvature="0" />
        <path
           id="path4412"
           d="m 25.206,36.644 -2,0 c 0,-7.72 -6.28,-14 -14,-14 l 0,-2 c 8.822,0 16,7.178 16,16 z"
           style="fill:#5d7989;stroke:#000000;stroke-width:0.18782911;stroke-linecap:round;stroke-linejoin:round;stroke-miterlimit:4;stroke-dasharray:none;stroke-opacity:1"
           inkscape:connector-curvature="0" />
        <path
           id="path4414"
           d="m 28.315,33.534 -2,0 c 0,-7.72 -6.28,-14 -14,-14 l 0,-2 c 8.822,0 16,7.178 16,16 z"
           style="fill:#5d7989;stroke:#000000;stroke-width:0.18782911;stroke-linecap:round;stroke-linejoin:round;stroke-miterlimit:4;stroke-dasharray:none;stroke-opacity:1"
           inkscape:connector-curvature="0" />
        <path
           id="path4416"
           d="m 31.57,30.28 -2,0 c 0,-7.72 -6.28,-14 -14,-14 l 0,-2 c 8.822,0 16,7.177 16,16 z"
           style="fill:#5d7989;stroke:#000000;stroke-width:0.18782911;stroke-linecap:round;stroke-linejoin:round;stroke-miterlimit:4;stroke-dasharray:none;stroke-opacity:1"
           inkscape:connector-curvature="0" />
        <path
           id="path4418"
           d="M 14.824,9.263 C 14.43,7.283 13.613,5.13 12.054,2.978 c 0,0 -8.224,4.078 -4.851,10.331 2.185,-1.865 4.775,-3.257 7.621,-4.046 z"
           style="fill:#546a79;stroke:#000000;stroke-opacity:1"
           inkscape:connector-curvature="0" />
        <path
           id="path4420"
           d="m 36.819,29.131 c -0.605,3.221 -1.979,6.164 -3.922,8.647 2.863,0.326 7.064,0.045 11.238,-2.98 0,0 -2.8,-5.647 -7.316,-5.667 z"
           style="fill:#546a79;stroke:#000000;stroke-opacity:1"
           inkscape:connector-curvature="0" />
        <circle
           id="circle4422"
           r="2"
           cy="33.383999"
           cx="5.9510002"
           style="fill:#000000;fill-opacity:1" />
      </g>
      <g
         id="g4424" />
      <g
         id="g4426" />
      <g
         id="g4428" />
      <g
         id="g4430" />
      <g
         id="g4432" />
      <g
         id="g4434" />
      <g
         id="g4436" />
      <g
         id="g4438" />
      <g
         id="g4440" />
      <g
         id="g4442" />
      <g
         id="g4444" />
      <g
         id="g4446" />
      <g
         id="g4448" />
      <g
         id="g4450" />
      <g
         id="g4452" />
    </g>
  </g>
</svg>
