<?xml version="1.0" encoding="UTF-8" standalone="no"?>
<!-- Created with Inkscape (http://www.inkscape.org/) -->

<svg
   xmlns:dc="http://purl.org/dc/elements/1.1/"
   xmlns:cc="http://creativecommons.org/ns#"
   xmlns:rdf="http://www.w3.org/1999/02/22-rdf-syntax-ns#"
   xmlns:svg="http://www.w3.org/2000/svg"
   xmlns="http://www.w3.org/2000/svg"
   xmlns:sodipodi="http://sodipodi.sourceforge.net/DTD/sodipodi-0.dtd"
   xmlns:inkscape="http://www.inkscape.org/namespaces/inkscape"
   width="150"
   height="150"
   viewBox="0 0 150 150.00001"
   id="svg5016"
   version="1.1"
   inkscape:version="0.91 r13725"
   sodipodi:docname="5.svg">
  <defs
     id="defs5018" />
  <sodipodi:namedview
     id="base"
     pagecolor="#ffffff"
     bordercolor="#666666"
     borderopacity="1.0"
     inkscape:pageopacity="0.0"
     inkscape:pageshadow="2"
     inkscape:zoom="5.6"
     inkscape:cx="68.578102"
     inkscape:cy="64.688969"
     inkscape:document-units="px"
     inkscape:current-layer="layer1"
     showgrid="false"
     fit-margin-top="0"
     fit-margin-left="0"
     fit-margin-right="0"
     fit-margin-bottom="0"
     units="px"
     inkscape:window-width="2560"
     inkscape:window-height="1377"
     inkscape:window-x="-8"
     inkscape:window-y="-8"
     inkscape:window-maximized="1" />
  <metadata
     id="metadata5021">
    <rdf:RDF>
      <cc:Work
         rdf:about="">
        <dc:format>image/svg+xml</dc:format>
        <dc:type
           rdf:resource="http://purl.org/dc/dcmitype/StillImage" />
        <dc:title />
      </cc:Work>
    </rdf:RDF>
  </metadata>
  <g
     inkscape:label="Vrstva 1"
     inkscape:groupmode="layer"
     id="layer1"
     transform="translate(669.28572,766.43598)">
    <g
       id="g4190"
       transform="matrix(2.941799,0,0,2.941799,-667.82922,-765.23486)"
       style="stroke:#000000;stroke-opacity:1">
      <path
         id="path4150"
         d="m 24.85,10.126 c 2.018,-4.783 6.628,-8.125 11.99,-8.125 7.223,0 12.425,6.179 13.079,13.543 0,0 0.353,1.828 -0.424,5.119 -1.058,4.482 -3.545,8.464 -6.898,11.503 L 24.85,48 7.402,32.165 C 4.049,29.127 1.562,25.144 0.504,20.662 -0.273,17.371 0.08,15.543 0.08,15.543 0.734,8.179 5.936,2 13.159,2 c 5.363,0 9.673,3.343 11.691,8.126 z"
         style="fill:#c03a2b;stroke:#000000;stroke-opacity:1"
         inkscape:connector-curvature="0" />
      <path
         id="path4152"
         d="m 6,18.078 c -0.553,0 -1,-0.447 -1,-1 0,-5.514 4.486,-10 10,-10 0.553,0 1,0.447 1,1 0,0.553 -0.447,1 -1,1 -4.411,0 -8,3.589 -8,8 0,0.553 -0.447,1 -1,1 z"
         style="fill:#ed7161;stroke:#000000;stroke-opacity:1"
         inkscape:connector-curvature="0" />
      <g
         id="g4154"
         style="stroke:#000000;stroke-opacity:1" />
      <g
         id="g4156"
         style="stroke:#000000;stroke-opacity:1" />
      <g
         id="g4158"
         style="stroke:#000000;stroke-opacity:1" />
      <g
         id="g4160"
         style="stroke:#000000;stroke-opacity:1" />
      <g
         id="g4162"
         style="stroke:#000000;stroke-opacity:1" />
      <g
         id="g4164"
         style="stroke:#000000;stroke-opacity:1" />
      <g
         id="g4166"
         style="stroke:#000000;stroke-opacity:1" />
      <g
         id="g4168"
         style="stroke:#000000;stroke-opacity:1" />
      <g
         id="g4170"
         style="stroke:#000000;stroke-opacity:1" />
      <g
         id="g4172"
         style="stroke:#000000;stroke-opacity:1" />
      <g
         id="g4174"
         style="stroke:#000000;stroke-opacity:1" />
      <g
         id="g4176"
         style="stroke:#000000;stroke-opacity:1" />
      <g
         id="g4178"
         style="stroke:#000000;stroke-opacity:1" />
      <g
         id="g4180"
         style="stroke:#000000;stroke-opacity:1" />
      <g
         id="g4182"
         style="stroke:#000000;stroke-opacity:1" />
    </g>
  </g>
</svg>
