<?xml version="1.0" encoding="UTF-8" standalone="no"?>
<!-- Created with Inkscape (http://www.inkscape.org/) -->

<svg
   xmlns:dc="http://purl.org/dc/elements/1.1/"
   xmlns:cc="http://creativecommons.org/ns#"
   xmlns:rdf="http://www.w3.org/1999/02/22-rdf-syntax-ns#"
   xmlns:svg="http://www.w3.org/2000/svg"
   xmlns="http://www.w3.org/2000/svg"
   xmlns:sodipodi="http://sodipodi.sourceforge.net/DTD/sodipodi-0.dtd"
   xmlns:inkscape="http://www.inkscape.org/namespaces/inkscape"
   width="150"
   height="150"
   viewBox="0 0 150 150.00001"
   id="svg5016"
   version="1.1"
   inkscape:version="0.91 r13725"
   sodipodi:docname="6.svg">
  <defs
     id="defs5018" />
  <sodipodi:namedview
     id="base"
     pagecolor="#ffffff"
     bordercolor="#666666"
     borderopacity="1.0"
     inkscape:pageopacity="0.0"
     inkscape:pageshadow="2"
     inkscape:zoom="5.6"
     inkscape:cx="99.024531"
     inkscape:cy="64.688969"
     inkscape:document-units="px"
     inkscape:current-layer="layer1"
     showgrid="false"
     fit-margin-top="0"
     fit-margin-left="0"
     fit-margin-right="0"
     fit-margin-bottom="0"
     units="px"
     inkscape:window-width="2560"
     inkscape:window-height="1377"
     inkscape:window-x="-8"
     inkscape:window-y="-8"
     inkscape:window-maximized="1" />
  <metadata
     id="metadata5021">
    <rdf:RDF>
      <cc:Work
         rdf:about="">
        <dc:format>image/svg+xml</dc:format>
        <dc:type
           rdf:resource="http://purl.org/dc/dcmitype/StillImage" />
        <dc:title></dc:title>
      </cc:Work>
    </rdf:RDF>
  </metadata>
  <g
     inkscape:label="Vrstva 1"
     inkscape:groupmode="layer"
     id="layer1"
     transform="translate(669.28572,766.43598)">
    <g
       id="g4739"
       transform="matrix(0.33478653,0,0,0.33478653,-669.28577,-766.43643)">
      <g
         id="g4691"
         transform="translate(0,-1020.36)"
         style="color-interpolation:sRGB;color-rendering:auto;image-rendering:auto;shape-rendering:auto">
        <path
           id="path4693"
           d="m 234.196,1020.538 c -4.174,0.368 -8.219,1.088 -12.126,2.25 l 0,0 c -12.155,3.592 -22.806,11.374 -28.781,22.938 -7.307,14.143 -6.389,32.164 -3.093,50.686 0.045,0.307 0.107,0.611 0.188,0.912 l 15.938,53.156 c 0.376,1.264 -0.178,2.279 -1.438,2.654 -1.259,0.367 -2.278,-0.176 -2.656,-1.439 l -12.125,-40.5 c -0.073,-0.232 -0.156,-0.463 -0.25,-0.688 -8.771,-21.902 -19.685,-42.816 -37.157,-51.846 -13.211,-6.826 -28.472,-6.102 -41.813,0 -13.339,6.039 -25.102,17.295 -32.781,32.154 -8.941,17.305 -8.918,32.717 -7.626,42.281 -8.552,4.482 -21.15,13.35 -30.093,30.656 -7.68,14.863 -10.016,30.969 -7.219,45.344 2.797,14.377 11.038,27.236 24.25,34.063 13.69,7.074 31.016,6.412 48.907,3.404 0.327,-0.061 0.651,-0.141 0.968,-0.24 l 48.531,-14.5 c 1.261,-0.367 2.28,0.176 2.656,1.408 0.377,1.264 -0.178,2.279 -1.437,2.654 l -32.062,9.594 c -0.201,0.072 -0.399,0.152 -0.594,0.24 -22.726,8.863 -44.706,19.98 -54.032,38.031 -6.826,13.213 -6.101,28.473 -0.062,41.813 6.038,13.34 17.264,25.135 32.125,32.813 17.309,8.943 32.709,8.914 42.282,7.625 4.48,8.545 13.352,21.121 30.656,30.063 14.862,7.678 30.966,10.014 45.344,7.217 10.53,-2.043 20.211,-7.078 27.344,-14.781 0.048,2.539 0.193,5.363 0.03,7.25 -1.666,19.383 -15.594,62.125 -15.594,62.125 -1.399,4.191 0.865,8.723 5.057,10.121 0.808,0.27 1.654,0.41 2.506,0.412 l 47.938,0 c 4.311,0.02 7.862,-3.381 8.03,-7.688 0,0 1.594,-42.434 0,-64.844 -0.632,-8.891 -2.322,-21.027 -4,-31.906 1.12,0.721 2.198,1.52 3.376,2.123 13.211,6.826 28.472,6.102 41.813,0 13.339,-6.039 25.102,-17.262 32.781,-32.125 8.939,-17.301 8.885,-32.691 7.594,-42.25 8.555,-4.486 21.15,-13.377 30.093,-30.688 7.68,-14.861 10.016,-30.965 7.219,-45.342 -2.797,-14.377 -11.006,-27.27 -24.218,-34.094 -14.664,-7.576 -33.514,-6.316 -52.75,-2.686 -0.264,0.045 -0.525,0.104 -0.782,0.176 l -42.437,12.721 c -1.259,0.367 -2.24,-0.176 -2.626,-1.439 -0.384,-1.297 0.152,-2.244 1.438,-2.623 l 33.843,-10.156 c 0.254,-0.068 0.504,-0.148 0.75,-0.24 21.07,-8.664 40.904,-19.402 49.626,-36.281 6.826,-13.215 6.102,-28.498 0.062,-41.844 -6.042,-13.346 -17.294,-25.102 -32.157,-32.783 -17.304,-8.941 -32.715,-8.916 -42.282,-7.623 -4.48,-8.553 -13.349,-21.122 -30.656,-30.064 -12.541,-6.479 -25.979,-9.19 -38.499,-8.188 l 0,-0.026 z"
           style="fill:#464c63"
           inkscape:connector-curvature="0" />
        <path
           id="path4695"
           d="m 235.476,1036.507 c 9.35,-0.72 19.898,1.248 29.875,6.405 17.488,9.035 23.766,22.217 26,27.75 1.484,3.672 5.43,5.705 9.282,4.783 5.808,-1.377 20.168,-3.877 37.656,5.158 11.827,6.111 20.504,15.459 24.907,25.188 4.403,9.73 4.651,19.479 0.312,27.875 -5.014,9.705 -21.674,20.633 -41.25,28.719 l -33.344,10 c -9.467,2.836 -14.99,13.066 -12.157,22.531 2.835,9.469 13.037,15.031 22.531,12.188 l 41.907,-12.563 c 17.597,-3.285 33.678,-3.096 42.093,1.248 8.4,4.342 13.869,12.428 15.907,22.906 2.037,10.479 0.36,23.143 -5.75,34.969 -9.038,17.49 -22.237,23.773 -27.75,26 -3.671,1.484 -5.703,5.432 -4.781,9.281 1.379,5.805 3.882,20.164 -5.157,37.656 -6.112,11.828 -15.467,20.506 -25.187,24.906 -9.722,4.402 -19.445,4.621 -27.843,0.305 -10.013,-5.17 -21.291,-22.746 -29.501,-43.094 l -10.25,-34.217 c -2.843,-9.494 -13.069,-14.998 -22.563,-12.156 -9.494,2.844 -15.03,13.068 -12.187,22.563 l 13.938,46.5 c 2.958,16.863 2.6,32.102 -1.594,40.219 -4.339,8.4 -12.427,13.836 -22.907,15.875 -10.478,2.039 -23.141,0.367 -34.968,-5.721 -17.491,-9.039 -23.736,-22.219 -25.968,-27.75 -1.484,-3.672 -5.43,-5.705 -9.282,-4.783 -5.787,1.377 -20.195,3.854 -37.688,-5.189 -11.827,-6.111 -20.506,-15.436 -24.906,-25.156 -4.402,-9.721 -4.622,-19.473 -0.282,-27.873 5.366,-10.385 24.12,-22.076 45.406,-30.408 l 31.656,-9.469 c 9.494,-2.842 14.998,-13.066 12.157,-22.563 -2.843,-9.494 -13.069,-15.031 -22.563,-12.188 l -47.938,14.375 c -16.181,2.674 -30.69,2.146 -38.531,-1.904 -8.398,-4.342 -13.837,-12.43 -15.875,-22.906 -2.038,-10.479 -0.392,-23.111 5.718,-34.938 9.037,-17.486 22.248,-23.766 27.782,-26 3.671,-1.484 5.703,-5.432 4.781,-9.281 -1.381,-5.805 -3.88,-20.168 5.157,-37.656 6.11,-11.828 15.435,-20.506 25.155,-24.906 9.722,-4.402 19.475,-4.656 27.875,-0.305 10.042,5.189 21.344,22.898 29.563,43.344 l 11.968,40.063 c 2.843,9.494 13.099,15.031 22.594,12.188 9.494,-2.842 15,-13.1 12.157,-22.594 l -15.75,-52.594 c -2.955,-16.846 -2.597,-32.105 1.594,-40.219 3.797,-7.348 10.467,-12.381 19.125,-14.938 2.786,-0.816 5.758,-1.36 8.875,-1.584 l 0.001,-0.04 z"
           style="fill:#82dd47"
           inkscape:connector-curvature="0" />
        <path
           id="path4697"
           d="m 245.007,1277.631 c 1.261,-0.367 2.28,0.176 2.656,1.439 l 10.376,34.688 c 0.073,0.232 0.156,0.463 0.25,0.688 4.054,10.088 8.661,19.824 14.062,28.406 0.349,1.965 6.498,36.811 7.718,54 1.259,17.701 0.253,47.207 0,55.531 l -29.874,0 c 3.262,-9.854 12.046,-34.865 13.811,-55.406 1.523,-17.717 -3.437,-47.469 -3.437,-47.469 -0.092,-0.678 -0.271,-1.34 -0.531,-1.971 -0.314,-6.289 -0.989,-12.713 -2.157,-19.281 -0.055,-0.309 -0.128,-0.613 -0.219,-0.912 l -14.093,-47.061 c -0.377,-1.264 0.178,-2.279 1.437,-2.656 l 0.001,0 z"
           style="fill:#57bb63"
           inkscape:connector-curvature="0" />
        <path
           id="path4699"
           d="m 242.695,1036.477 c -2.459,-0.16 -4.882,-0.16 -7.219,0 l 0,0 c -3.117,0.24 -6.09,0.768 -8.875,1.6 -8.658,2.557 -15.328,7.591 -19.125,14.938 -4.19,8.111 -4.549,23.373 -1.6,40.217 l 15.75,52.596 c 2.77,9.248 -2.454,19.111 -11.501,22.25 3.28,0.992 6.774,1.377 10.251,0.336 9.494,-2.844 14.998,-13.102 12.155,-22.596 l -15.749,-52.594 c -2.955,-16.846 -2.597,-32.105 1.6,-40.217 3.797,-7.348 10.467,-12.381 19.125,-14.938 2.344,-0.688 4.885,-1.072 7.469,-1.344 -0.752,-0.16 -1.536,-0.256 -2.282,-0.304 l 0.001,0.056 z m -110.781,33.279 c -4.704,0 -9.578,1.232 -14.438,3.438 -9.72,4.4 -19.045,13.078 -25.155,24.906 -9.037,17.488 -6.538,31.852 -5.157,37.656 0.923,3.85 -1.11,7.797 -4.781,9.281 -5.534,2.234 -18.746,8.514 -27.782,26 -6.11,11.828 -7.757,24.459 -5.718,34.938 2.039,10.479 7.477,18.564 15.875,22.906 5.669,2.928 14.875,3.943 25.626,3.313 -5.966,-0.4 -11.101,-1.439 -14.72,-3.313 -8.398,-4.342 -13.835,-12.43 -15.874,-22.906 -2.038,-10.479 -0.384,-23.111 5.718,-34.938 9.037,-17.486 22.246,-23.766 27.781,-26 3.671,-1.484 5.703,-5.432 4.781,-9.281 -1.376,-5.805 -3.88,-20.168 5.157,-37.656 6.11,-11.828 15.437,-20.506 25.157,-24.906 3.194,-1.439 6.379,-2.279 9.531,-2.813 -1.966,-0.385 -3.957,-0.656 -6,-0.623 l 0,0 z m 183.156,4.377 c -3.734,-0.191 -6.794,0 -9.437,0.432 1.781,1.045 3.897,1.359 5.906,0.881 1.392,-0.336 3.328,-0.721 5.626,-0.992 -0.656,0 -1.456,-0.271 -2.094,-0.305 l -0.001,-0.016 z m 50.625,118.188 c -7.272,-0.176 -15.701,0.576 -24.499,2.219 l -41,12.281 c 3.21,0.928 6.6,1.297 10,0.271 l 41.906,-12.563 c 5.779,-1.072 11.234,-1.633 16.469,-1.938 -1.008,0 -1.824,-0.256 -2.875,-0.287 l 0,0.017 z m -196.437,23.469 c -2.339,-0.271 -4.752,-0.16 -7.126,0.623 l -0.912,0.271 c 5.763,1.664 10.738,5.811 12.563,11.906 2.842,9.494 -2.662,19.721 -12.157,22.563 l -31.656,9.469 c -21.286,8.332 -40.04,20.021 -45.406,30.406 -4.341,8.4 -4.12,18.154 0.288,27.875 4.4,9.721 13.078,19.045 24.906,25.156 13.304,6.875 24.763,7.084 32.062,6.188 -6.136,-0.545 -13.245,-2.1 -21.155,-6.188 -11.827,-6.111 -20.507,-15.436 -24.907,-25.156 -4.402,-9.721 -4.622,-19.475 -0.288,-27.875 5.366,-10.385 24.12,-22.076 45.406,-30.406 l 31.656,-9.469 c 9.494,-2.842 14.998,-13.066 12.157,-22.563 -2.133,-7.121 -8.422,-12.01 -15.437,-12.813 l 0.006,0.013 z m 89.188,45.937 c -2.339,-0.271 -4.752,-0.16 -7.125,0.623 -0.24,0 -0.416,0.256 -0.656,0.336 5.653,1.711 10.514,5.807 12.312,11.813 l 10.25,34.219 c 8.21,20.35 19.488,37.924 29.501,43.094 5.68,2.922 11.986,3.623 18.469,2.5 -2.603,-0.496 -5.149,-1.264 -7.563,-2.5 -10.013,-5.17 -21.291,-22.744 -29.501,-43.094 l -10.25,-34.219 c -2.133,-7.119 -8.422,-11.986 -15.437,-12.781 l 0,0.01 z m -98.344,87.313 c -0.59,0.01 -1.177,0.086 -1.75,0.225 -1.232,0.287 -3.042,0.607 -5,0.881 1.526,0.893 2.713,2.268 3.376,3.906 2.232,5.533 8.477,18.713 25.968,27.75 10.512,5.406 21.602,7.164 31.312,6.094 -6.718,-0.736 -13.67,-2.631 -20.406,-6.094 -17.491,-9.039 -23.736,-22.217 -25.968,-27.75 -1.238,-3.061 -4.23,-5.047 -7.531,-5 l 0,-0.012 z"
           style="fill:#74bd45"
           inkscape:connector-curvature="0" />
        <path
           id="path4701"
           d="m 245.007,1277.631 c -1.264,0.385 -1.814,1.393 -1.44,2.656 l 14.093,47.064 c 0.092,0.299 0.167,0.604 0.224,0.912 1.168,6.568 1.843,12.992 2.157,19.281 0.259,0.631 0.437,1.293 0.528,1.969 0,0 4.96,29.752 3.437,47.469 -1.765,20.541 -10.549,45.553 -13.811,55.406 l 6.749,0 c 3.262,-9.854 12.048,-34.865 13.813,-55.406 1.52,-17.717 -3.437,-47.469 -3.437,-47.469 -0.091,-0.676 -0.269,-1.338 -0.528,-1.969 -0.304,-6.057 -0.976,-12.252 -2.062,-18.563 -2.29,-4.695 -4.445,-9.57 -6.438,-14.531 -0.096,-0.225 -0.181,-0.455 -0.256,-0.688 l -10.376,-34.686 c -0.368,-1.264 -1.392,-1.801 -2.656,-1.439 l 0.003,-0.01 z"
           style="fill:#52a25b"
           inkscape:connector-curvature="0" />
      </g>
      <g
         id="g4703" />
      <g
         id="g4705" />
      <g
         id="g4707" />
      <g
         id="g4709" />
      <g
         id="g4711" />
      <g
         id="g4713" />
      <g
         id="g4715" />
      <g
         id="g4717" />
      <g
         id="g4719" />
      <g
         id="g4721" />
      <g
         id="g4723" />
      <g
         id="g4725" />
      <g
         id="g4727" />
      <g
         id="g4729" />
      <g
         id="g4731" />
    </g>
  </g>
</svg>
